<svg width="113" height="113" viewBox="0 0 113 113" fill="none" xmlns="http://www.w3.org/2000/svg">
<path d="M102.195 97.3645L98.8185 93.9876C100.554 91.3612 101.586 88.1719 101.586 84.7951C101.586 75.5089 94.0815 68.005 84.7953 68.005C75.5091 68.005 68.0051 75.5089 68.0051 84.7951C68.0051 94.0813 75.5091 101.585 84.7953 101.585C88.219 101.585 91.3613 100.554 93.9877 98.8183L97.3645 102.195C98.0211 102.852 98.9122 103.18 99.7564 103.18C100.648 103.18 101.492 102.852 102.148 102.195C103.508 100.835 103.508 98.6777 102.195 97.3645Z" fill="#292D32"/>
<path opacity="0.4" d="M9.52082 68.6147C9.52082 68.7554 9.427 68.943 9.427 69.0837C13.7418 77.7133 20.7768 84.7951 29.4065 89.063C29.5471 89.063 29.7347 88.9693 29.8754 88.9693C28.2808 83.5289 27.0614 77.9478 26.1703 72.3667C20.5423 71.4287 14.9612 70.2093 9.52082 68.6147Z" fill="#292D32"/>
<path opacity="0.4" d="M89.4387 30.1567C85.0301 20.9174 77.573 13.4603 68.3806 9.0986C70.069 14.6797 71.476 20.4015 72.414 26.1233C78.1358 27.0613 83.8576 28.4214 89.4387 30.1567Z" fill="#292D32"/>
<path opacity="0.4" d="M9.05127 30.1567C14.6793 28.4683 20.4011 27.0613 26.1229 26.1233C27.0609 20.5422 28.2334 15.008 29.828 9.56765C29.6873 9.56765 29.4997 9.47375 29.359 9.47375C20.5418 13.8355 13.3661 21.1988 9.05127 30.1567Z" fill="#292D32"/>
<path opacity="0.4" d="M64.8154 25.1383C63.6898 19.0413 62.2828 12.9444 60.2661 7.03501C60.1723 6.70671 60.1723 6.42535 60.1254 6.05015C56.6548 5.20595 52.9965 4.64307 49.2445 4.64307C45.4456 4.64307 41.8343 5.15905 38.3168 6.05015C38.2699 6.37845 38.3168 6.65981 38.223 7.03501C36.2532 12.9444 34.7993 19.0413 33.6737 25.1383C44.0386 24.0127 54.4505 24.0127 64.8154 25.1383Z" fill="#292D32"/>
<path opacity="0.4" d="M25.1382 33.6742C18.9943 34.7998 12.9442 36.2068 7.03482 38.2235C6.70652 38.3173 6.42509 38.3173 6.04989 38.3642C5.20569 41.8348 4.64294 45.493 4.64294 49.245C4.64294 53.0439 5.15879 56.6552 6.04989 60.1727C6.37819 60.2196 6.65962 60.1728 7.03482 60.2666C12.9442 62.2364 18.9943 63.6903 25.1382 64.8159C24.0126 54.451 24.0126 44.0391 25.1382 33.6742Z" fill="#292D32"/>
<path opacity="0.4" d="M92.3925 38.3642C92.0642 38.3642 91.7828 38.3173 91.4076 38.2235C85.4982 36.2537 79.4012 34.7998 73.3042 33.6742C74.4767 44.0391 74.4767 54.4509 73.3042 64.7689C79.4012 63.6433 85.4982 62.2363 91.4076 60.2196C91.7359 60.1258 92.0173 60.1728 92.3925 60.1259C93.2367 56.6084 93.7995 52.997 93.7995 49.1981C93.7995 45.493 93.2836 41.8817 92.3925 38.3642Z" fill="#292D32"/>
<path opacity="0.4" d="M33.6737 73.3517C34.7993 79.4956 36.2063 85.5456 38.223 91.455C38.3168 91.7833 38.2699 92.0647 38.3168 92.4399C41.8343 93.2841 45.4456 93.847 49.2445 93.847C52.9965 93.847 56.6548 93.331 60.1254 92.4399C60.1723 92.1116 60.1723 91.8302 60.2661 91.455C62.2359 85.5456 63.6898 79.4956 64.8154 73.3517C59.6564 73.9145 54.4504 74.3365 49.2445 74.3365C44.0386 74.2896 38.8327 73.9145 33.6737 73.3517Z" fill="#292D32"/>
<path opacity="0.4" d="M32.5959 32.5955C31.1889 43.6639 31.1889 54.8261 32.5959 65.9414C43.6643 67.3484 54.8265 67.3484 65.9418 65.9414C67.3488 54.873 67.3488 43.7108 65.9418 32.5955C54.8265 31.1885 43.6643 31.1885 32.5959 32.5955Z" fill="#292D32"/>
</svg>
